 http://www.scenespeeds.com/


 NOTES: Piss poor quality. get if you're desperate otherwise please dont complain as you have been warned. Also, dont forward through the movie or it will freeze. watch without forwarding. A TS by Scene will be out shortly.
 
http://www.imdb.com/title/tt1262416/



General
Complete name : Scream.4.2011.Cam.DivX-NoGRP.divx
Format : AVI
Format/Info : Audio Video Interleave
File size : 1.27 GiB
Duration : 1h 43mn
Overall bit rate : 1 761 Kbps

Video
ID : 0
Format : MPEG-4 Visual
Format settings, BVOP : Yes
Format settings, QPel : No
Format settings, GMC : No warppoints
Format settings, Matrix : Default (H.263)
Muxing mode : Packed bitstream
Codec ID : DX50
Codec ID/Hint : DivX 5
Duration : 1h 43mn
Bit rate : 1 621 Kbps
Width : 720 pixels
Height : 404 pixels
Display aspect ratio : 16:9
Frame rate : 30.000 fps
Resolution : 8 bits
Colorimetry : 4:2:0
Scan type : Progressive
Bits/(Pixel*Frame) : 0.186
Stream size : 1.17 GiB (92%)
Title : Video
Writing library : DivX 3330

Audio
ID : 1
Format : MPEG Audio
Format version : Version 1
Format profile : Layer 3
Mode : Joint stereo
Codec ID : 55
Codec ID/Hint : MP3
Duration : 1h 43mn
Bit rate mode : Constant
Bit rate : 128 Kbps
Channel(s) : 2 channels
Sampling rate : 44.1 KHz
Stream size : 94.3 MiB (7%)
Alignment : Split accross interleaves
Interleave, duration : 33 ms (1.00 video frame)
Interleave, preload duration : 500 ms
Title : Audio

 
http://www.scenespeeds.com/
 
http://shareimage.ro/images/yh6af5zqe749v8h1t08.jpg 
http://shareimage.ro/images/jv381nunaa2k99ec2e9.jpg 
http://shareimage.ro/images/5xg8xowan8uv7567r4fn.jpg

